<?xml version="1.0" standalone="no"?>
<!DOCTYPE svg PUBLIC "-//W3C//DTD SVG 20010904//EN"
 "http://www.w3.org/TR/2001/REC-SVG-20010904/DTD/svg10.dtd">
<svg version="1.0" xmlns="http://www.w3.org/2000/svg"
 width="500.000000pt" height="500.000000pt" viewBox="0 0 500.000000 500.000000"
 preserveAspectRatio="xMidYMid meet">
<metadata>
Created by potrace 1.14, written by Peter Selinger 2001-2017
</metadata>
<g transform="translate(0.000000,500.000000) scale(0.100000,-0.100000)"
fill="#000000" stroke="none">
<path d="M2454 3820 c-30 -12 -54 -54 -54 -96 0 -29 7 -44 36 -71 l36 -33 -1
-277 c0 -250 1 -277 17 -289 39 -28 42 -6 42 289 l0 280 35 31 c49 44 51 101
6 147 -31 30 -73 37 -117 19z m93 -69 c22 -45 -23 -90 -68 -68 -31 16 -39 65
-12 84 27 20 66 12 80 -16z"/>
<path d="M2195 3786 c-16 -6 -43 -18 -60 -27 -37 -21 -205 -80 -205 -73 0 2
-8 1 -17 -5 -27 -14 -197 -41 -348 -56 -38 -4 -72 -9 -74 -11 -7 -7 66 -109
110 -153 90 -90 196 -138 312 -140 30 -1 37 -5 37 -21 0 -33 40 -108 71 -135
27 -22 94 -43 105 -33 11 12 -19 65 -47 80 -25 15 -79 104 -67 112 1 1 31 11
66 21 67 20 92 39 75 56 -16 16 -44 17 -98 3 -67 -18 -170 -17 -234 2 -29 8
-51 17 -49 19 1 1 23 6 48 9 87 12 116 18 195 42 113 35 169 64 173 92 5 32
-23 38 -71 14 -89 -43 -245 -77 -388 -85 -65 -4 -65 -4 -98 34 l-32 39 28 1
c44 1 113 9 173 20 94 18 104 20 145 31 22 6 45 12 52 14 6 1 60 23 119 48 59
26 108 45 109 44 1 -2 7 -23 14 -48 20 -69 57 -126 104 -158 65 -44 73 -45 72
-8 0 23 -11 42 -45 76 -34 34 -50 60 -64 107 -26 86 -56 109 -111 89z"/>
<path d="M2753 3789 c-21 -8 -53 -56 -53 -79 0 -29 -44 -102 -79 -130 -29 -23
-37 -37 -35 -56 4 -38 11 -40 51 -19 49 27 98 90 118 155 10 30 21 58 25 63 3
4 44 -10 91 -31 46 -22 107 -46 134 -55 72 -24 228 -55 315 -62 41 -4 76 -8
77 -9 1 -1 -12 -18 -30 -38 -31 -34 -34 -36 -89 -32 -67 3 -146 14 -213 28
-57 12 -86 21 -153 49 -68 27 -75 28 -90 13 -12 -12 -14 -21 -7 -32 9 -14 128
-71 165 -79 8 -2 42 -10 75 -18 33 -9 85 -19 115 -22 30 -4 57 -8 58 -10 2 -2
-20 -11 -49 -19 -78 -23 -147 -21 -286 8 -11 2 -29 -1 -39 -9 -28 -20 -4 -40
72 -61 57 -15 64 -19 59 -38 -16 -55 -29 -75 -61 -92 -24 -13 -37 -29 -44 -53
-5 -19 -8 -36 -7 -38 9 -8 81 21 108 44 34 29 68 94 69 131 0 19 6 22 38 23
113 2 237 58 319 144 36 39 103 133 103 146 0 5 -15 9 -32 10 -18 0 -40 2 -48
3 -8 2 -41 6 -73 10 -54 5 -147 19 -208 31 -66 12 -201 56 -269 88 -98 45
-101 46 -127 36z"/>
<path d="M2260 3360 c-29 -41 -50 -112 -44 -147 16 -89 90 -171 262 -287 56
-37 122 -90 147 -117 38 -41 45 -54 45 -89 0 -38 -6 -47 -62 -101 -34 -32 -65
-59 -70 -59 -4 0 -8 60 -8 133 l0 133 -29 17 -30 17 2 -150 c1 -97 -2 -150 -8
-150 -19 0 -124 109 -131 135 -10 42 5 77 57 129 27 27 49 52 49 55 0 3 -9 12
-20 19 -18 11 -25 10 -49 -10 -52 -43 -91 -103 -97 -151 -10 -68 25 -119 149
-222 135 -111 164 -156 157 -245 -2 -29 -26 -70 -40 -70 -6 0 -10 32 -10 73 0
64 -3 76 -23 95 -13 12 -26 22 -30 22 -4 0 -6 -26 -6 -57 2 -141 -4 -158 -37
-108 -23 35 -20 108 6 152 21 35 21 38 4 50 -26 19 -36 12 -62 -38 -19 -36
-22 -55 -19 -107 5 -72 26 -109 75 -132 24 -11 32 -22 32 -43 0 -19 7 -30 23
-36 26 -10 37 2 37 39 0 18 9 29 32 40 100 47 107 187 17 302 l-32 40 34 26
c143 112 177 185 128 277 -23 42 -36 56 -108 116 l-44 36 54 40 c112 83 169
160 171 231 2 65 -1 77 -33 126 l-30 48 -26 -23 c-35 -33 -73 -116 -73 -162 0
-21 7 -54 16 -75 l15 -37 -33 -28 c-18 -16 -52 -42 -74 -57 l-42 -29 -58 40
c-97 68 -93 61 -74 120 10 29 16 66 13 83 -7 45 -39 108 -72 140 l-29 27 -22
-31z m56 -103 c4 -17 8 -38 7 -44 0 -7 -1 -24 -2 -38 0 -14 -6 -25 -12 -25
-15 0 -39 64 -34 90 13 67 28 74 41 17z m409 1 c6 -38 4 -52 -15 -91 -10 -20
-16 -24 -22 -15 -19 30 -2 138 21 138 6 0 13 -15 16 -32z"/>
<path d="M1369 1909 c-17 -17 -19 -35 -19 -159 0 -129 2 -141 21 -159 17 -16
33 -19 81 -16 82 4 91 15 94 115 l2 80 -49 0 c-48 0 -49 -1 -49 -31 0 -17 4
-28 10 -24 11 7 12 4 12 -40 1 -50 -1 -52 -26 -48 -24 5 -24 6 -24 123 0 79 4
120 12 123 19 7 41 -7 41 -28 0 -15 7 -19 35 -20 33 0 35 2 33 34 -2 50 -23
65 -94 67 -48 2 -65 -2 -80 -17z"/>
<path d="M2615 1922 c-39 -9 -44 -30 -45 -189 l0 -153 38 0 37 0 -1 138 c0
138 5 165 32 155 11 -4 14 -34 14 -149 l0 -144 39 0 39 0 -1 155 c0 135 -3
157 -18 171 -18 16 -96 25 -134 16z"/>
<path d="M3138 1910 c-16 -12 -21 -29 -22 -71 -4 -97 9 -114 89 -121 28 -3 30
-6 30 -43 0 -34 -3 -40 -22 -43 -21 -3 -29 10 -24 41 1 5 -16 7 -36 5 -37 -3
-38 -4 -35 -38 4 -48 22 -63 84 -65 93 -4 108 12 108 116 0 71 -14 90 -72 96
-48 6 -59 21 -50 66 5 25 48 19 44 -5 -2 -14 4 -18 31 -18 39 0 51 17 37 54
-12 33 -26 40 -88 41 -37 1 -60 -3 -74 -15z"/>
<path d="M1674 1753 l1 -168 38 -3 37 -3 0 70 c0 64 2 71 20 71 21 0 22 -4 21
-87 l0 -53 38 0 38 0 0 73 c0 39 -4 80 -9 91 -7 12 -6 22 1 29 6 6 11 34 11
62 0 74 -16 85 -116 85 l-80 0 0 -167z m121 67 c0 -39 -3 -45 -23 -48 -20 -3
-22 1 -22 48 0 48 2 51 23 48 19 -3 22 -9 22 -48z"/>
<path d="M2003 1750 l0 -170 78 0 79 0 0 30 c0 27 -3 30 -32 31 -18 1 -36 1
-40 0 -5 0 -8 18 -8 42 0 42 0 42 37 42 38 0 40 2 34 45 0 6 -16 10 -35 10
-31 0 -34 3 -38 35 -2 20 -2 38 1 40 2 3 22 5 43 5 36 0 38 2 38 30 l0 30 -78
0 -78 0 -1 -170z"/>
<path d="M2288 1913 c-4 -7 -3 -269 1 -315 1 -16 12 -18 76 -18 l75 0 0 30 c0
28 -2 30 -40 30 l-40 0 0 43 0 43 38 -3 c35 -2 38 0 40 28 2 28 0 29 -38 29
l-40 0 0 40 c0 40 0 40 39 40 33 0 39 3 43 25 3 13 3 27 0 30 -8 8 -150 6
-154 -2z"/>
<path d="M2900 1751 l0 -171 38 0 38 0 -1 168 0 167 -37 3 -38 3 0 -170z"/>
<path d="M3443 1750 l0 -170 39 0 39 0 -3 64 c-2 51 0 66 12 69 36 9 46 -6 45
-68 l0 -60 38 -3 37 -3 0 170 0 171 -38 0 -38 0 1 -70 1 -70 -28 0 c-26 0 -28
3 -29 43 -1 23 0 54 1 70 1 25 -1 27 -37 27 l-39 0 -1 -170z"/>
<path d="M2190 1409 c-31 -13 -40 -26 -40 -66 0 -63 75 -98 115 -53 22 24 12
39 -15 22 -11 -7 -28 -12 -39 -12 -32 0 -43 58 -15 81 13 10 20 10 45 -5 17
-10 33 -16 36 -13 7 7 -16 47 -27 47 -4 0 -14 2 -22 4 -7 3 -24 0 -38 -5z"/>
<path d="M2380 1356 c-13 -33 -25 -67 -27 -73 -3 -7 2 -13 11 -13 9 0 19 7 22
15 4 8 17 15 30 15 14 0 27 -7 30 -15 4 -8 15 -15 26 -15 12 0 16 4 12 11 -4
7 -17 39 -29 72 -29 81 -47 82 -75 3z m47 -32 c-12 -12 -25 7 -19 28 l5 22 10
-22 c6 -12 7 -25 4 -28z"/>
<path d="M2558 1409 c-2 -5 -1 -38 0 -74 3 -48 7 -65 18 -65 8 0 14 10 14 25
0 14 6 25 13 25 8 0 19 -11 25 -25 13 -29 49 -36 37 -7 -15 36 -17 52 -6 52
16 0 14 45 -3 59 -17 14 -94 22 -98 10z m73 -29 c4 0 6 -7 3 -15 -9 -24 -44
-19 -44 6 0 15 4 19 16 15 9 -3 20 -6 25 -6z"/>
<path d="M2750 1343 l0 -73 50 0 c38 0 50 4 50 15 0 10 -11 15 -35 15 -24 0
-35 5 -35 15 0 9 9 15 25 15 16 0 25 6 25 15 0 9 -9 15 -25 15 -16 0 -25 6
-25 15 0 9 6 15 13 14 31 -4 57 2 57 14 0 8 -16 13 -50 13 l-50 0 0 -73z"/>
</g>
</svg>
